<svg width="170" height="50" viewBox="0 0 170 50" fill="none" xmlns="http://www.w3.org/2000/svg">
<path d="M152.16 29.142V0.342001H157.56V29.142H152.16ZM159.36 29.142V24.39H159.54C160.296 24.39 160.872 24.192 161.268 23.796C161.676 23.388 161.88 22.806 161.88 22.05C161.88 21.726 161.88 21.408 161.88 21.096C161.88 20.784 161.88 20.466 161.88 20.142C161.88 18.954 161.694 18.114 161.322 17.622C160.962 17.118 160.368 16.866 159.54 16.866H159.36V12.114H159.54C160.296 12.114 160.872 11.856 161.268 11.34C161.676 10.812 161.88 10.074 161.88 9.126C161.88 8.778 161.88 8.436 161.88 8.1C161.88 7.752 161.88 7.41 161.88 7.074C161.88 6.438 161.676 5.952 161.268 5.616C160.872 5.268 160.296 5.094 159.54 5.094H159.36V0.342001H159.54C162.228 0.342001 164.19 0.888001 165.426 1.98C166.662 3.06 167.28 4.854 167.28 7.362C167.28 7.698 167.28 8.022 167.28 8.334C167.28 8.646 167.268 8.958 167.244 9.27C167.172 10.578 166.878 11.622 166.362 12.402C165.858 13.17 165.072 13.734 164.004 14.094V14.958C165.108 15.318 165.918 15.894 166.434 16.686C166.95 17.466 167.232 18.534 167.28 19.89C167.304 20.286 167.316 20.652 167.316 20.988C167.316 21.324 167.304 21.702 167.28 22.122C167.172 24.618 166.524 26.412 165.336 27.504C164.16 28.596 162.228 29.142 159.54 29.142H159.36Z" fill="black"/>
<path d="M133.502 29.142L137.498 0.342001H146.426L147.038 5.094H141.494L141.098 12.726L140.342 18.378H142.538L141.278 23.13H140.018L139.046 29.142H133.502ZM144.806 29.142L142.862 12.69L142.682 6.894H147.146L150.35 29.142H144.806Z" fill="black"/>
<path d="M120.098 29.142V0.342001H125.498V29.142H120.098ZM127.298 29.142V24.39H132.59V29.142H127.298Z" fill="black"/>
<path d="M94.9613 29.142V0.342001H100.361V29.142H94.9613ZM102.161 19.998V15.246H102.197C102.953 15.246 103.523 15.072 103.907 14.724C104.291 14.376 104.501 13.89 104.537 13.266C104.573 12.678 104.597 12.018 104.609 11.286C104.621 10.542 104.621 9.804 104.609 9.072C104.597 8.328 104.573 7.662 104.537 7.074C104.501 6.438 104.291 5.952 103.907 5.616C103.523 5.268 102.953 5.094 102.197 5.094H102.161V0.342001H102.197C104.885 0.342001 106.823 0.888001 108.011 1.98C109.211 3.06 109.853 4.854 109.937 7.362C109.973 8.37 109.991 9.306 109.991 10.17C109.991 11.034 109.973 11.97 109.937 12.978C109.853 15.474 109.211 17.268 108.011 18.36C106.823 19.452 104.885 19.998 102.197 19.998H102.161Z" fill="black"/>
<path d="M77.1663 22.266C77.1183 18.642 77.0943 14.988 77.0943 11.304C77.0943 7.608 77.1183 3.954 77.1663 0.342001H82.5663C82.5183 2.754 82.4883 5.268 82.4763 7.884C82.4763 10.5 82.4823 13.116 82.4943 15.732C82.5183 18.348 82.5423 20.862 82.5663 23.274C82.5663 23.718 82.6743 24.09 82.8903 24.39C83.1183 24.678 83.4423 24.882 83.8623 25.002V29.484C81.4983 29.364 79.8003 28.74 78.7683 27.612C77.7363 26.484 77.2023 24.702 77.1663 22.266ZM85.6623 29.484V25.002C86.0823 24.882 86.3943 24.678 86.5983 24.39C86.8143 24.09 86.9223 23.718 86.9223 23.274C86.9463 20.862 86.9643 18.348 86.9763 15.732C87.0003 13.116 87.0063 10.5 86.9943 7.884C86.9943 5.268 86.9703 2.754 86.9223 0.342001H92.3223C92.3823 3.954 92.4123 7.608 92.4123 11.304C92.4123 14.988 92.3823 18.642 92.3223 22.266C92.2863 24.702 91.7523 26.484 90.7203 27.612C89.7003 28.74 88.0143 29.364 85.6623 29.484Z" fill="#ED6C00"/>
<path d="M58.4213 29.142L56.2613 19.71L54.7853 5.058H49.9613V0.342001H57.7733L59.9333 9.522L61.9133 24.39H66.6293V29.142H58.4213ZM49.9613 29.142V6.858H53.3092L54.7133 19.854L55.1813 29.142H49.9613ZM63.3172 22.59L61.6613 9.522L61.4093 0.342001H66.6293V22.59H63.3172Z" fill="black"/>
<path d="M35.2659 29.142V0.342001H40.6659V29.142H35.2659ZM42.4299 29.142V24.39H47.7219V29.142H42.4299ZM42.4299 16.866V12.114H47.3619V16.866H42.4299ZM42.4299 5.094V0.342001H47.7219V5.094H42.4299Z" fill="black"/>
<path d="M18.0394 29.142V0.342001H23.4394V29.142H18.0394ZM25.2394 19.998V15.246H25.2754C26.0314 15.246 26.6014 15.072 26.9854 14.724C27.3694 14.376 27.5794 13.89 27.6154 13.266C27.6514 12.678 27.6754 12.018 27.6874 11.286C27.6994 10.542 27.6994 9.804 27.6874 9.072C27.6754 8.328 27.6514 7.662 27.6154 7.074C27.5794 6.438 27.3694 5.952 26.9854 5.616C26.6014 5.268 26.0314 5.094 25.2754 5.094H25.2394V0.342001H25.2754C27.9634 0.342001 29.9014 0.888001 31.0894 1.98C32.2894 3.06 32.9314 4.854 33.0154 7.362C33.0514 8.37 33.0694 9.306 33.0694 10.17C33.0694 11.034 33.0514 11.97 33.0154 12.978C32.9314 15.474 32.2894 17.268 31.0894 18.36C29.9014 19.452 27.9634 19.998 25.2754 19.998H25.2394Z" fill="black"/>
<path d="M6.804 29.484C4.476 29.376 2.784 28.758 1.728 27.63C0.684 26.502 0.132 24.714 0.072 22.266C0.0480001 21.09 0.03 19.866 0.018 18.594C0.00599998 17.322 0 16.032 0 14.724C0 13.416 0.00599998 12.126 0.018 10.854C0.03 9.582 0.0480001 8.358 0.072 7.182C0.132 4.746 0.684 2.97 1.728 1.854C2.784 0.726 4.476 0.107999 6.804 0V4.482C6.396 4.602 6.084 4.806 5.868 5.094C5.652 5.382 5.532 5.742 5.508 6.174C5.46 7.398 5.418 8.742 5.382 10.206C5.358 11.67 5.346 13.176 5.346 14.724C5.346 16.272 5.358 17.778 5.382 19.242C5.418 20.706 5.46 22.05 5.508 23.274C5.532 23.718 5.652 24.09 5.868 24.39C6.084 24.678 6.396 24.882 6.804 25.002V29.484ZM8.604 29.484V25.002C9.012 24.882 9.318 24.678 9.522 24.39C9.738 24.09 9.852 23.718 9.864 23.274C9.924 22.05 9.966 20.706 9.99 19.242C10.014 17.778 10.026 16.272 10.026 14.724C10.026 13.176 10.014 11.67 9.99 10.206C9.966 8.742 9.924 7.398 9.864 6.174C9.852 5.742 9.738 5.382 9.522 5.094C9.306 4.806 9 4.602 8.604 4.482V0C10.908 0.12 12.564 0.744 13.572 1.872C14.592 3 15.144 4.77 15.228 7.182C15.276 8.382 15.312 9.618 15.336 10.89C15.36 12.162 15.372 13.452 15.372 14.76C15.372 16.056 15.36 17.34 15.336 18.612C15.312 19.872 15.276 21.09 15.228 22.266C15.144 24.69 14.592 26.466 13.572 27.594C12.564 28.722 10.908 29.352 8.604 29.484Z" fill="black"/>
<path d="M121.852 50L130.08 34.292H134.084L135.668 50H132.478L132.214 46.26H127.132L125.284 50H121.852ZM128.474 43.466H132.06L131.774 39.418C131.745 38.9927 131.715 38.56 131.686 38.12C131.657 37.68 131.649 37.2327 131.664 36.778H131.62C131.473 37.174 131.312 37.57 131.136 37.966C130.96 38.3473 130.762 38.7653 130.542 39.22L128.474 43.466Z" fill="#ED6C00"/>
<path d="M106.193 50L105.709 34.292H108.789L108.855 42.872C108.855 43.4147 108.84 44.0307 108.811 44.72C108.796 45.3947 108.759 46.018 108.701 46.59H108.789C108.994 46.018 109.221 45.4093 109.471 44.764C109.72 44.104 109.94 43.5467 110.131 43.092L114.091 34.292H116.995L117.215 43.092C117.229 43.3413 117.229 43.664 117.215 44.06C117.215 44.456 117.207 44.8813 117.193 45.336C117.178 45.776 117.156 46.194 117.127 46.59H117.215C117.347 46.1793 117.493 45.754 117.655 45.314C117.816 44.8593 117.977 44.4193 118.139 43.994C118.315 43.554 118.469 43.1727 118.601 42.85L122.143 34.292H125.465L118.513 50H114.795L114.619 42.85C114.604 42.2047 114.589 41.6767 114.575 41.266C114.575 40.8407 114.575 40.4593 114.575 40.122C114.575 39.7847 114.582 39.4327 114.597 39.066H114.509C114.318 39.6527 114.12 40.21 113.915 40.738C113.724 41.266 113.519 41.7793 113.299 42.278L109.823 50H106.193Z" fill="#ED6C00"/>
<path d="M88.8089 50L97.0369 34.292H101.041L102.625 50H99.4349L99.1709 46.26H94.0889L92.2409 50H88.8089ZM95.4309 43.466H99.0169L98.7309 39.418C98.7016 38.9927 98.6722 38.56 98.6429 38.12C98.6136 37.68 98.6062 37.2327 98.6209 36.778H98.5769C98.4302 37.174 98.2689 37.57 98.0929 37.966C97.9169 38.3473 97.7189 38.7653 97.4989 39.22L95.4309 43.466Z" fill="#ED6C00"/>
<path d="M77.674 50L78.092 47.844L86.43 37.042H80.6L81.172 34.292H91.226L90.786 36.47L82.382 47.25H88.784L88.212 50H77.674Z" fill="#ED6C00"/>
<path d="M69.2741 50L69.6701 48.108L71.6721 47.228L73.8281 37.064L72.2001 36.184L72.5961 34.292H79.5481L79.1521 36.184L77.1061 37.064L74.9501 47.228L76.6221 48.108L76.2261 50H69.2741Z" fill="#ED6C00"/>
<path d="M56.9919 50L60.3139 34.292H63.5919L61.9419 41.882L63.6139 39.638L68.0579 34.292H71.9299L65.5499 41.816L68.6739 50H65.0439L62.7779 43.642L61.4359 44.39L60.2699 50H56.9919Z" fill="#ED6C00"/>
<path d="M41.2855 50L49.5135 34.292H53.5175L55.1015 50H51.9115L51.6475 46.26H46.5655L44.7175 50H41.2855ZM47.9075 43.466H51.4935L51.2075 39.418C51.1781 38.9927 51.1488 38.56 51.1195 38.12C51.0901 37.68 51.0828 37.2327 51.0975 36.778H51.0535C50.9068 37.174 50.7455 37.57 50.5695 37.966C50.3935 38.3473 50.1955 38.7653 49.9755 39.22L47.9075 43.466Z" fill="#ED6C00"/>
<path d="M34.8737 50L37.6017 37.064H33.8177L34.4117 34.292H45.2577L44.6637 37.064H40.8797L38.1517 50H34.8737Z" fill="#ED6C00"/>
<path fill-rule="evenodd" clip-rule="evenodd" d="M33 43L0 43L0 41L33 41V43Z" fill="black"/>
<path fill-rule="evenodd" clip-rule="evenodd" d="M170 43L137 43V41L170 41V43Z" fill="black"/>
</svg>
